# xmcd
#
# Track frame offsets:
#	150
#	19835
#	37498
#	54831
#	71063
#	84394
#	104028
#	127451
#	142418
#	162714
#	177531
#	197152
#	215245
#	232341
#	250320
#	266112
#	283305
#	304060
#
# Disc length: 4266 seconds
#
# Revision: 0
# Processed by: cddbd v1.5.2PL0 Copyright (c) Steve Scherf et al.
# Submitted via: EasyCDDAExtractor 4.6.0.1
#
DISCID=3e10a812
DTITLE=Alain Morisod and Sweet People - Anthologie 30 ans de succès CD 2
DYEAR=2008
DGENRE=
TTITLE0=River blue
TTITLE1=Prends le temps
TTITLE2=Les violons d'Acadie
TTITLE3=Un enfant
TTITLE4=Le lac de Côme
TTITLE5=Voilà pourquoi on chante des chansons
TTITLE6=Je m'en vais (inédit)
TTITLE7=On est fait l'un pour l'autre
TTITLE8=Madawaska
TTITLE9=Je t'attendrai my love
TTITLE10=Comme si demain n'existait pas
TTITLE11=Le temps qu'il nous reste
TTITLE12=Je finirai par l'oublier (inédit)
TTITLE13=Combien faut-il de temps
TTITLE14=Quand le soleil dit bonjour aux montagnes
TTITLE15=Tant qu'il nous restera un peu d'amour
TTITLE16=Une chansons italienne
TTITLE17=Savoir donner
EXTD=
EXTT0=
EXTT1=
EXTT2=
EXTT3=
EXTT4=
EXTT5=
EXTT6=
EXTT7=
EXTT8=
EXTT9=
EXTT10=
EXTT11=
EXTT12=
EXTT13=
EXTT14=
EXTT15=
EXTT16=
EXTT17=
PLAYORDER=
